# xmcd
#
# Track frame offsets:
#	150
#	19638
#	38363
#	60791
#	76402
#	100309
#	121992
#	148756
#	167081
#	185280
#	203482
#	220831
#	253037
#	285052
#	302577
#	324870
#
# Disc length: 4784 seconds
#
# Revision: 4
# Processed by: cddbd v1.5.2PL0 Copyright (c) Steve Scherf et al.
# Submitted via: EZCDAudioConverter 6.0.0.1
#
DISCID=c212ae10
DTITLE=Various Artist - Akella Presents - vol.78 - Modern Electric Blues  CD2
DYEAR=2016
DGENRE=Blues
TTITLE0=Jimmie Bratcher - When The Blues Come
TTITLE1=A Ton Of Blues - When It Comes To Love
TTITLE2=Daddy Mack Blues Band - Let's Get Together
TTITLE3=Ryan Hartt and The Blue Hearts - I Choose The Blues
TTITLE4=Otis Grand - Your Love Pulls No Punches
TTITLE5=Woodleg Odd - Love Is A Hazard
TTITLE6=Too Slim And The Taildraggers - Potent 8
TTITLE7=Jordan Patterson Band - You're My Girl
TTITLE8=Dave Steffen Band - The Storm Is Gone
TTITLE9=The Eric Street Band - Part Time Lover
TTITLE10=Wentus Blues Band - Explorer Boogie
TTITLE11=Fast Freddy Sims and Blue Point Of View - Lights Reflect On The Water
TTITLE12=The Nick Moss Band - Fare Thee Well
TTITLE13=Tinsley Ellis - Crime Of Passion
TTITLE14=Tim Gonzalez And Friends - Summertime
TTITLE15=Melvin Taylor - Lowdown Dirty Shame
EXTD=
EXTT0=
EXTT1=
EXTT2=
EXTT3=
EXTT4=
EXTT5=
EXTT6=
EXTT7=
EXTT8=
EXTT9=
EXTT10=
EXTT11=
EXTT12=
EXTT13=
EXTT14=
EXTT15=
PLAYORDER=
